<svg width="56" height="56" viewBox="0 0 56 56" fill="none" xmlns="http://www.w3.org/2000/svg">
<path d="M41.7159 12.4445L39.2167 40.4412L27.983 43.5556L16.7802 40.4456L14.2837 12.4445H41.7159Z" fill="#264DE4"/>
<path d="M37.0774 38.6585L39.2131 14.734H28V41.1751L37.0774 38.6585Z" fill="#2965F1"/>
<path d="M20.0068 25.1191L20.3146 28.5533H27.9998V25.1191H20.0068Z" fill="#EBEBEB"/>
<path d="M28.0002 18.1682H27.9883H19.3887L19.7009 21.6024H28.0002V18.1682Z" fill="#EBEBEB"/>
<path d="M28 37.6112V34.0381L27.9849 34.0422L24.1602 33.0094L23.9157 30.2704H22.0572H20.4683L20.9494 35.6627L27.9841 37.6156L28 37.6112Z" fill="#EBEBEB"/>
<path d="M32.2172 28.5533L31.8185 33.0073L27.9883 34.0411V37.6139L35.0286 35.6627L35.0803 35.0825L35.8873 26.0413L35.9711 25.1191L36.5911 18.1682H27.9883V21.6024H32.8275L32.515 25.1191H27.9883V28.5533H32.2172Z" fill="white"/>
</svg>
